# xmcd
#
# Track frame offsets:
# 150
# 12815
# 26798
# 38348
# 46485
# 57138
# 65453
# 84148
# 93318
# 104035
# 115113
# 128870
# 143648
# 157365
# 168683
#
# Disc length: 2371 seconds
#
#
# Revision: 0
# Processed by: cddbd v1.5.1PL0 Copyright (c) Steve Scherf et al.
# Submitted via: FreeRIP 2.931 
#
DISCID=c409410f
DTITLE=The Fritts Family - Ballad of Thunder Road
DYEAR=1992
DGENRE=Bluegrass
TTITLE0=Ashes of Love
TTITLE1=Ballad of Thunder Road
TTITLE2=Sombody's Mother
TTITLE3=Farewell Blues
TTITLE4=Take Me Back to Tulsa
TTITLE5=Handsome Molly
TTITLE6=Tennessee Stud
TTITLE7=Standing on the Mountain
TTITLE8=Rainbow at Sunrise
TTITLE9=Wildwood Flower
TTITLE10=John Henry
TTITLE11=I shall Not be Moved
TTITLE12=Wreck of the Old 97
TTITLE13=Cold as How You Left Me
TTITLE14=Foggy Mountain Breakdown
EXTD=
EXTT0=
EXTT1=
EXTT2=
EXTT3=
EXTT4=
EXTT5=
EXTT6=
EXTT7=
EXTT8=
EXTT9=
EXTT10=
EXTT11=
EXTT12=
EXTT13=
EXTT14=
PLAYORDER=
